<svg width="60" height="52" viewBox="0 0 60 52" fill="none" xmlns="http://www.w3.org/2000/svg">
<path d="M5.35177 23.6124C2.5417 23.6124 0.249985 21.3206 0.249985 18.5106V15.9597C0.249985 15.414 0.686501 14.9775 1.23215 14.9775H5.28357C5.82921 14.9775 6.26573 15.414 6.26573 15.9597C6.26573 16.5053 5.82921 16.9418 5.28357 16.9418H2.20067V18.5106C2.20067 20.243 3.60571 21.6617 5.35177 21.6617C7.0842 21.6617 8.50288 20.2566 8.50288 18.5106V5.75611C8.50288 2.59137 11.0811 0.0131836 14.2458 0.0131836C14.7914 0.0131836 15.228 0.449702 15.228 0.995347C15.228 1.54099 14.7914 1.97751 14.2458 1.97751C12.1587 1.97751 10.4536 3.68265 10.4536 5.76975V18.5242C10.4536 21.3207 8.16185 23.6124 5.35177 23.6124Z" fill="white"/>
<path d="M18.952 23.6128H5.35182C4.80618 23.6128 4.36966 23.1762 4.36966 22.6306C4.36966 22.085 4.80618 21.6484 5.35182 21.6484H18.952C19.4977 21.6484 19.9342 22.085 19.9342 22.6306C19.9342 23.1762 19.4977 23.6128 18.952 23.6128Z" fill="white"/>
<path d="M52.3592 52H18.952C18.4064 52 17.9699 51.5635 17.9699 51.0179V5.70199C17.9699 3.64217 16.292 1.96431 14.2322 1.96431C13.6865 1.96431 13.25 1.52781 13.25 0.982164C13.25 0.436518 13.6865 0 14.2322 0H47.6257C50.7632 0 53.3141 2.55089 53.3141 5.68835V11.3085C53.3141 11.8541 52.8775 12.2907 52.3319 12.2907C51.7863 12.2907 51.3497 11.8541 51.3497 11.3085V5.68835C51.3497 3.62854 49.6719 1.95067 47.6121 1.95067H18.5292C19.4022 2.94648 19.9342 4.25603 19.9342 5.68835V50.0357H51.377V40.5551C51.377 40.0095 51.8135 39.5729 52.3592 39.5729C52.9048 39.5729 53.3413 40.0095 53.3413 40.5551V51.0179C53.3277 51.5635 52.8912 52 52.3592 52Z" fill="white"/>
<path d="M27.2185 41.5371C26.741 41.5371 26.4409 41.4144 26.1954 41.237C24.9813 40.3504 25.3224 38.4679 25.4451 37.854C25.5406 37.3084 26.1272 34.6074 27.9142 34.6074C28.5417 34.6074 29.4556 34.9212 30.0285 35.4941C30.4105 35.8761 30.6015 36.3535 30.5878 36.8446C30.5742 37.3766 30.1377 37.7995 29.6057 37.7995C29.06 37.7858 28.6508 37.3766 28.6235 36.8582C28.528 36.7491 28.2143 36.6127 28.0097 36.5717C27.8187 36.7764 27.5049 37.4448 27.3685 38.2087C27.2048 39.0681 27.273 39.4364 27.314 39.5865C27.5186 39.5728 27.996 39.5046 28.9782 39.1772C30.4378 38.6998 31.1744 38.4679 31.6246 38.0996C32.3475 37.513 32.6613 36.7627 32.9068 36.1489C33.1524 35.5487 33.4934 34.7166 34.4074 34.7438C35.6078 34.7711 36.1125 36.2171 36.5763 38.6998C36.6718 39.2318 36.3308 39.7365 35.7988 39.8457C35.2667 39.9411 34.762 39.6001 34.6529 39.0681C34.5438 38.5088 34.4483 38.0587 34.3664 37.7176C34.0663 38.3179 33.6162 39.0135 32.8795 39.6137C32.1429 40.2139 31.2972 40.4868 29.6057 41.0324C28.4735 41.4007 27.7368 41.5371 27.2185 41.5371Z" fill="white"/>
<path d="M35.5942 45.7798H26.2773C25.7316 45.7798 25.2951 45.3432 25.2951 44.7976C25.2951 44.2519 25.7316 43.8154 26.2773 43.8154H35.5942C36.1398 43.8154 36.5763 44.2519 36.5763 44.7976C36.5763 45.3432 36.1398 45.7798 35.5942 45.7798Z" fill="white"/>
<path d="M45.525 43.8151C45.1157 43.8151 44.6929 43.7333 44.2836 43.5696C42.6058 42.8739 41.8009 40.9642 42.4966 39.2863L52.4683 15.0323C52.5638 14.7868 52.7548 14.5958 53.0003 14.5003C53.2459 14.4048 53.505 14.4048 53.7506 14.5003L58.0203 16.26C58.525 16.4647 58.7569 17.0376 58.5523 17.5423L48.5806 41.7963C48.0486 43.0376 46.8209 43.8151 45.525 43.8151ZM53.9143 16.6693L44.3109 40.0229C44.0381 40.7049 44.3518 41.4825 45.0339 41.7553C45.716 42.0418 46.4935 41.7144 46.7663 41.0324L56.3697 17.6787L53.9143 16.6693Z" fill="white"/>
<path d="M43.7651 45.7931C43.6424 45.7931 43.5196 45.7659 43.3968 45.7249C42.8921 45.5203 42.6602 44.9474 42.8648 44.4427L43.7515 42.2873C43.9561 41.7826 44.5291 41.5507 45.0338 41.7554C45.5385 41.96 45.7704 42.5329 45.5658 43.0376L44.6791 45.1929C44.5154 45.5749 44.1471 45.7931 43.7651 45.7931Z" fill="white"/>
<path d="M56.888 17.8149C56.7653 17.8149 56.6288 17.7876 56.5197 17.7466L53.7506 16.6144C53.2458 16.4098 53.0139 15.8369 53.2186 15.3322L54.4326 12.372C54.6782 11.7582 55.1556 11.2807 55.7695 11.0352C56.3833 10.776 57.0517 10.776 57.6656 11.0352C58.9206 11.5536 59.5344 12.9995 59.0161 14.2682L57.802 17.2283C57.7065 17.4738 57.5155 17.6648 57.27 17.7603C57.1472 17.7876 57.0244 17.8149 56.888 17.8149ZM55.4011 15.1685L56.356 15.5641L57.2018 13.5042C57.3109 13.2451 57.1881 12.9313 56.9153 12.8222C56.7925 12.7676 56.6425 12.7676 56.5197 12.8222C56.397 12.8768 56.2878 12.9723 56.2469 13.1087L55.4011 15.1685Z" fill="white"/>
<path d="M56.0695 31.1559C55.9467 31.1559 55.8239 31.1286 55.7012 31.0877C55.1965 30.8831 54.9645 30.3102 55.1692 29.8054L57.379 24.4308C57.6382 23.8033 57.6382 23.1213 57.379 22.4938C57.1199 21.8663 56.6288 21.3889 56.0149 21.1297C55.5102 20.9251 55.2783 20.3521 55.4829 19.8474C55.6875 19.3427 56.2605 19.1108 56.7652 19.3154C57.8701 19.7656 58.7295 20.625 59.1933 21.7299C59.6571 22.8348 59.6571 24.0489 59.2069 25.1538L56.9971 30.5284C56.8197 30.924 56.4514 31.1559 56.0695 31.1559Z" fill="white"/>
<path d="M48.5124 40.3228C48.3896 40.3228 48.2669 40.2955 48.1441 40.2546L43.8744 38.4949C43.3697 38.2903 43.1378 37.7173 43.3424 37.2126C43.547 36.7079 44.12 36.476 44.6247 36.6806L48.8944 38.4404C49.3991 38.645 49.631 39.2179 49.4264 39.7226C49.2627 40.1045 48.8944 40.3228 48.5124 40.3228Z" fill="white"/>
<path d="M41.0097 8.22507H31.4337C30.888 8.22507 30.4515 7.78855 30.4515 7.24291C30.4515 6.69726 30.888 6.26074 31.4337 6.26074H41.0097C41.5554 6.26074 41.9919 6.69726 41.9919 7.24291C41.9919 7.78855 41.5554 8.22507 41.0097 8.22507Z" fill="white"/>
<path d="M47.5029 13.6958H24.9541C24.4085 13.6958 23.972 13.2593 23.972 12.7136C23.972 12.168 24.4085 11.7314 24.9541 11.7314H47.5166C48.0622 11.7314 48.4987 12.168 48.4987 12.7136C48.4851 13.2593 48.0486 13.6958 47.5029 13.6958Z" fill="white"/>
<path d="M47.5029 19.1655H24.9541C24.4085 19.1655 23.972 18.729 23.972 18.1833C23.972 17.6377 24.4085 17.2012 24.9541 17.2012H47.5166C48.0622 17.2012 48.4987 17.6377 48.4987 18.1833C48.4987 18.729 48.0486 19.1655 47.5029 19.1655Z" fill="white"/>
<path d="M45.9069 24.6357H24.9541C24.4085 24.6357 23.972 24.1992 23.972 23.6536C23.972 23.1079 24.4085 22.6714 24.9541 22.6714H45.9206C46.4662 22.6714 46.9027 23.1079 46.9027 23.6536C46.9027 24.1992 46.4526 24.6357 45.9069 24.6357Z" fill="white"/>
<path d="M42.7285 30.0923H24.9541C24.4085 30.0923 23.972 29.6557 23.972 29.1101C23.972 28.5644 24.4085 28.1279 24.9541 28.1279H42.7285C43.2742 28.1279 43.7107 28.5644 43.7107 29.1101C43.6971 29.6557 43.2605 30.0923 42.7285 30.0923Z" fill="white"/>
</svg>
