<svg width="59" height="52" viewBox="0 0 59 52" fill="none" xmlns="http://www.w3.org/2000/svg">
<path d="M55.278 19.2674H54.8889C51.6241 7.88291 41.2038 0 29.3118 0C17.4029 0 6.9826 7.88291 3.73472 19.2674H3.34564C1.63712 19.2674 0.25 20.6545 0.25 22.363V30.8887C0.25 32.5973 1.63712 33.9844 3.34564 33.9844H4.29295V39.6682C4.29295 40.1757 4.69892 40.5817 5.20641 40.5817H12.4127C14.6456 43.3051 17.5044 45.4365 20.8199 46.8236C25.1166 48.6337 29.9546 49.0228 34.4543 47.9232C34.6404 47.8725 34.7757 47.9063 34.9279 47.9909L41.3053 51.6617C41.6944 51.8816 42.1172 52 42.5401 52C42.9631 52 43.386 51.8816 43.7581 51.6617C44.5362 51.2218 44.993 50.4268 44.993 49.5302V42.1717C44.993 41.9856 45.0437 41.8504 45.1621 41.7319C47.2766 39.499 48.9175 36.8263 49.9494 33.8998C50.1355 33.9505 50.3215 33.9844 50.5245 33.9844H55.261C56.9696 33.9844 58.3567 32.5973 58.3567 30.8887V22.363C58.3736 20.6545 56.9865 19.2674 55.278 19.2674ZM29.3118 1.82694C40.2226 1.82694 49.8141 8.94862 53.0112 19.2674H50.5415C50.3385 19.2674 50.1524 19.3012 49.9832 19.352C49.5265 18.0833 48.9683 16.8484 48.2916 15.6812C45.3651 10.6233 40.6455 6.98634 34.9956 5.48081C29.3456 3.95837 23.4419 4.73652 18.384 7.663C13.8167 10.3019 10.3996 14.4294 8.6742 19.352C8.48813 19.3012 8.30206 19.2674 8.09906 19.2674H5.62931C8.80953 8.94862 18.384 1.82694 29.3118 1.82694ZM2.06003 30.8887V22.363C2.06003 21.6526 2.63518 21.0943 3.32874 21.0943H8.06522C8.16672 21.0943 8.2513 21.162 8.28513 21.2466V21.2635C8.30204 21.2973 8.30205 21.3312 8.30205 21.365V31.9375C8.30205 31.9714 8.30204 32.0052 8.28513 32.039V32.056C8.2513 32.1405 8.1498 32.1913 8.06522 32.1913H3.32874C2.63518 32.1744 2.06003 31.5992 2.06003 30.8887ZM6.10297 38.7547V33.9844H8.08214C8.28514 33.9844 8.47122 33.9505 8.64038 33.8998C9.09711 35.1685 9.65534 36.4034 10.332 37.5706C10.5688 37.9766 10.8056 38.3656 11.0594 38.7378H6.10297V38.7547ZM43.8596 40.4801C43.4198 40.9369 43.183 41.5289 43.183 42.1717V49.5302C43.183 49.767 43.0645 49.9701 42.8616 50.0885C42.6416 50.2069 42.4217 50.2069 42.2188 50.0885L35.8414 46.4007C35.2832 46.0793 34.6742 45.9948 34.0314 46.147C27.045 47.8386 19.7373 45.5719 14.8655 40.5647H19.7373C20.1095 41.5966 21.0906 42.324 22.2409 42.324H26.0639C27.5356 42.324 28.7197 41.123 28.7197 39.6682C28.7197 38.1965 27.5187 36.9954 26.0639 36.9954H22.2409C21.0906 36.9954 20.1095 37.7228 19.7373 38.7547H13.3092C12.8017 38.095 12.345 37.4014 11.9221 36.674C11.1439 35.3376 10.535 33.9167 10.0952 32.445C10.1459 32.2759 10.1628 32.1067 10.1628 31.9206V21.3481C10.1628 21.1789 10.1459 20.9928 10.0952 20.8406C11.5669 15.9349 14.8316 11.8243 19.2806 9.25309C23.9325 6.56343 29.3456 5.85298 34.5219 7.2401C39.6983 8.62721 44.0288 11.9597 46.7184 16.5947C47.4966 17.931 48.1055 19.352 48.5454 20.8237C48.4946 20.9929 48.4777 21.162 48.4777 21.3481V31.9206C48.4777 32.0898 48.4946 32.2759 48.5454 32.4281C47.6319 35.4392 46.0249 38.2134 43.8596 40.4801ZM21.3951 39.6682C21.3951 39.1945 21.7841 38.8224 22.2409 38.8224H26.0639C26.5376 38.8224 26.9097 39.2114 26.9097 39.6682C26.9097 40.1249 26.5206 40.514 26.0639 40.514H22.2409C21.7672 40.514 21.3951 40.1249 21.3951 39.6682ZM56.5467 30.8887C56.5467 31.5992 55.9715 32.1574 55.278 32.1574H50.5415C50.44 32.1574 50.3554 32.0898 50.3215 32.0052C50.3215 32.0052 50.3215 32.0052 50.3215 31.9883C50.3046 31.9544 50.3046 31.9206 50.3046 31.8868V21.3142C50.3046 21.1789 50.423 21.0605 50.5584 21.0605H54.2292H55.2949C56.0053 21.0605 56.5636 21.6357 56.5636 22.3292V30.8887H56.5467ZM40.5779 20.0963C40.5779 20.6038 40.1719 21.0098 39.6644 21.0098H18.9592C18.4517 21.0098 18.0457 20.6038 18.0457 20.0963C18.0457 19.5888 18.4517 19.1828 18.9592 19.1828H39.6813C40.1719 19.1828 40.5779 19.5888 40.5779 20.0963ZM40.5779 26.6259C40.5779 27.1334 40.1719 27.5394 39.6644 27.5394H18.9592C18.4517 27.5394 18.0457 27.1334 18.0457 26.6259C18.0457 26.1184 18.4517 25.7124 18.9592 25.7124H39.6813C40.1719 25.7293 40.5779 26.1353 40.5779 26.6259ZM30.2253 33.1724C30.2253 33.6799 29.8193 34.0858 29.3118 34.0858H18.9592C18.4517 34.0858 18.0457 33.6799 18.0457 33.1724C18.0457 32.6649 18.4517 32.2589 18.9592 32.2589H29.3118C29.8193 32.2589 30.2253 32.6649 30.2253 33.1724Z" fill="white"/>
</svg>
