<svg width="53" height="52" viewBox="0 0 53 52" fill="none" xmlns="http://www.w3.org/2000/svg">
<path fill-rule="evenodd" clip-rule="evenodd" d="M37.0938 1.79201C37.5136 0.952512 38.4177 0 40.1451 0C41.8725 0 42.7766 0.952512 43.1964 1.79201C43.6323 2.64766 43.6161 3.47103 43.6161 3.47103V4.61703H48.2334C48.863 4.61703 49.3796 5.13365 49.3796 5.77942V13.8677H49.3958V33.8708C51.5154 35.7757 52.8508 38.5369 52.8508 41.6031C52.8508 47.3343 48.1851 52 42.4539 52C39.3802 52 36.6129 50.658 34.7075 48.5294H2.02852C1.38275 48.5294 0.866132 48.0289 0.866132 47.3831V15.2098C0.855504 15.1462 0.849976 15.0807 0.849976 15.0139V5.77942C0.849976 5.13365 1.36659 4.61703 2.01236 4.61703H6.6458V3.47103C6.6458 3.47103 6.62965 2.63151 7.0494 1.79201C7.46915 0.952512 8.37323 0 10.1007 0C11.8442 0 12.716 0.936368 13.1519 1.79201C13.5878 2.64766 13.5717 3.47103 13.5717 3.47103V4.61703H21.6762V3.47103C21.6762 3.47103 21.66 2.63151 22.0798 1.79201C22.4995 0.952512 23.4036 0 25.1311 0C26.8585 0 27.7464 0.936368 28.1823 1.79201C28.6182 2.64766 28.6021 3.47103 28.6021 3.47103V4.61703H36.6902V3.47103C36.6902 3.47103 36.6741 2.64766 37.0938 1.79201ZM13.5717 6.92567V8.08829C13.5717 8.08829 13.5717 8.91163 13.1519 9.76728C12.7322 10.6229 11.812 11.5593 10.1007 11.5593C8.38937 11.5593 7.46915 10.6229 7.0494 9.76728C6.62965 8.91163 6.6458 8.08829 6.6458 8.08829V6.92567H3.15861V13.8677H3.17476V13.8677H47.071V6.92567H43.6161V8.08829C43.6161 8.08829 43.6161 8.91163 43.1964 9.76728C42.7766 10.6229 41.8564 11.5593 40.1451 11.5593C38.4338 11.5593 37.5136 10.6229 37.0938 9.76728C36.6741 8.91163 36.6902 8.08829 36.6902 8.08829V6.92567H28.6021V8.08829C28.6021 8.08829 28.6021 8.91163 28.1823 9.76728C27.7626 10.6229 26.8424 11.5593 25.1311 11.5593C23.4198 11.5593 22.4995 10.6229 22.0798 9.76728C21.66 8.91163 21.6762 8.08829 21.6762 8.08829V6.92567H13.5717ZM47.0872 16.1763V32.2974C45.6912 31.5993 44.1174 31.2062 42.4539 31.2062C36.7227 31.2062 32.057 35.8719 32.057 41.6031C32.057 43.2604 32.4471 44.8287 33.1404 46.2207H3.17476V16.1763H47.0872ZM41.1299 2.82524C40.9846 2.53465 40.7424 2.30864 40.1451 2.30864C39.5801 2.30864 39.3056 2.53465 39.1603 2.82524C39.015 3.13199 38.9989 3.47103 38.9989 3.47103V8.08829C38.9989 8.08829 39.015 8.42731 39.1603 8.73405C39.3056 9.04079 39.5639 9.25065 40.1451 9.25065C40.7263 9.25065 40.9846 9.04079 41.1299 8.73405C41.2913 8.42731 41.3075 8.08829 41.3075 8.08829V3.47103C41.3075 3.47103 41.2752 3.13199 41.1299 2.82524ZM42.4539 33.5148C46.942 33.5148 50.5421 37.115 50.5421 41.6031C50.5421 46.0912 46.942 49.6914 42.4539 49.6914C37.9658 49.6914 34.3656 46.0912 34.3656 41.6031C34.3656 37.115 37.9819 33.5148 42.4539 33.5148ZM40.8882 38.3749C40.872 37.7453 41.3887 37.2287 42.0183 37.2126C42.6802 37.1964 43.213 37.7292 43.1968 38.3749V42.524L45.1664 44.4936C46.2642 45.5753 44.6337 47.222 43.5358 46.1242L41.2272 43.8156C41.0012 43.5895 40.8882 43.2989 40.8882 42.9922V38.3749ZM25.1311 2.30864C25.7284 2.30864 25.9706 2.53465 26.1159 2.82524C26.2612 3.11584 26.2935 3.47103 26.2935 3.47103V8.08829C26.2935 8.08829 26.2773 8.42731 26.1159 8.73405C25.9706 9.04079 25.7123 9.25065 25.1311 9.25065C24.5499 9.25065 24.2916 9.04079 24.1463 8.73405C24.001 8.42731 23.9848 8.08829 23.9848 8.08829V3.47103C23.9848 3.47103 24.001 3.13199 24.1463 2.82524C24.2916 2.53465 24.5499 2.30864 25.1311 2.30864ZM11.0855 2.82524C10.9402 2.53465 10.698 2.30864 10.1007 2.30864C9.53562 2.30864 9.26116 2.53465 9.11586 2.82524C8.97057 3.13199 8.95442 3.47103 8.95442 3.47103V8.08829C8.95442 8.08829 8.97057 8.42731 9.11586 8.73405C9.26116 9.04079 9.51947 9.25065 10.1007 9.25065C10.6819 9.25065 10.9402 9.04079 11.0855 8.73405C11.2469 8.42731 11.2631 8.08829 11.2631 8.08829V3.47103C11.2631 3.47103 11.2308 3.13199 11.0855 2.82524Z" fill="white"/>
</svg>
