<svg width="56" height="52" viewBox="0 0 56 52" fill="none" xmlns="http://www.w3.org/2000/svg">
<path d="M51.2786 42.7704H33.3453C32.8326 42.7704 32.4224 42.3602 32.4224 41.8475C32.4224 41.3347 32.8326 40.9245 33.3453 40.9245H50.3557V37.1046C50.3557 36.5918 50.7659 36.1816 51.2786 36.1816C51.7914 36.1816 52.2016 36.5918 52.2016 37.1046V41.8347C52.1888 42.3602 51.7786 42.7704 51.2786 42.7704Z" fill="white"/>
<path d="M22.8212 42.7703H4.88791C4.37516 42.7703 3.96497 42.3601 3.96497 41.8474V37.1173C3.96497 36.6045 4.37516 36.1943 4.88791 36.1943C5.40066 36.1943 5.81086 36.6045 5.81086 37.1173V40.9373H22.8212C23.334 40.9373 23.7442 41.3475 23.7442 41.8602C23.7442 42.3601 23.334 42.7703 22.8212 42.7703Z" fill="white"/>
<path d="M13.3226 29.3105C11.8485 29.3105 10.6435 28.1055 10.6435 26.6313V15.8637C10.6435 14.3895 11.8485 13.1846 13.3226 13.1846C14.7968 13.1846 16.0017 14.3895 16.0017 15.8637V26.6313C16.0145 28.1183 14.8096 29.3105 13.3226 29.3105ZM13.3226 15.0176C12.8611 15.0176 12.4766 15.4022 12.4766 15.8637V26.6313C12.4766 27.0928 12.8611 27.4774 13.3226 27.4774C13.7841 27.4774 14.1686 27.0928 14.1686 26.6313V15.8637C14.1686 15.3894 13.7969 15.0176 13.3226 15.0176Z" fill="white"/>
<path d="M17.4502 31.6952C15.6427 31.6952 14.1814 30.2339 14.1814 28.4264V14.0695C14.1814 12.2621 15.6427 10.8008 17.4502 10.8008C19.2576 10.8008 20.7189 12.2749 20.7189 14.0695V28.4264C20.7189 30.2339 19.2448 31.6952 17.4502 31.6952ZM17.4502 12.6338C16.6554 12.6338 16.0145 13.2748 16.0145 14.0695V28.4264C16.0145 29.2212 16.6554 29.8622 17.4502 29.8622C18.2449 29.8622 18.8858 29.2212 18.8858 28.4264V14.0695C18.8858 13.2748 18.2321 12.6338 17.4502 12.6338Z" fill="white"/>
<path d="M36.3706 27.8114H19.8089C19.2961 27.8114 18.8859 27.4012 18.8859 26.8884V15.608C18.8859 15.0953 19.2961 14.6851 19.8089 14.6851H36.3706C36.8833 14.6851 37.2935 15.0953 37.2935 15.608V26.8884C37.2807 27.4012 36.8705 27.8114 36.3706 27.8114ZM20.719 25.9655H35.4476V16.5181H20.719V25.9655Z" fill="white"/>
<path d="M42.8311 29.3105C41.357 29.3105 40.152 28.1055 40.152 26.6313V15.8637C40.152 14.3895 41.357 13.1846 42.8311 13.1846C44.3053 13.1846 45.5103 14.3895 45.5103 15.8637V26.6313C45.5231 28.1183 44.3181 29.3105 42.8311 29.3105ZM42.8311 15.0176C42.3697 15.0176 41.9851 15.4022 41.9851 15.8637V26.6313C41.9851 27.0928 42.3697 27.4774 42.8311 27.4774C43.2926 27.4774 43.6772 27.0928 43.6772 26.6313V15.8637C43.6772 15.3894 43.3054 15.0176 42.8311 15.0176Z" fill="white"/>
<path d="M38.7163 31.6952C36.9089 31.6952 35.4476 30.2339 35.4476 28.4264V14.0695C35.4476 12.2621 36.9217 10.8008 38.7163 10.8008C40.5109 10.8008 41.9851 12.2749 41.9851 14.0695V28.4264C41.9851 30.2339 40.5238 31.6952 38.7163 31.6952ZM38.7163 12.6338C37.9216 12.6338 37.2807 13.2748 37.2807 14.0695V28.4264C37.2807 29.2212 37.9216 29.8622 38.7163 29.8622C39.5111 29.8622 40.152 29.2212 40.152 28.4264V14.0695C40.152 13.2748 39.5111 12.6338 38.7163 12.6338Z" fill="white"/>
<path d="M31.3969 31.6949H24.7569C24.2441 31.6949 23.8339 31.2847 23.8339 30.772V26.8751C23.8339 26.3623 24.2441 25.9521 24.7569 25.9521H31.3969C31.9097 25.9521 32.3199 26.3623 32.3199 26.8751V30.772C32.3199 31.2847 31.9097 31.6949 31.3969 31.6949ZM25.6798 29.8619H30.474V27.8109H25.6798V29.8619Z" fill="white"/>
<path d="M28.0769 51.9995C27.7693 51.9995 27.4488 51.9611 27.1412 51.897C25.6542 51.5637 24.4749 50.3844 24.116 48.8974C23.7955 47.5514 24.1416 46.1927 25.0774 45.1928C25.1286 45.1416 25.1543 45.039 25.1543 44.9364V30.7975C25.1543 30.2847 25.5645 29.8745 26.0772 29.8745H30.0895C30.6022 29.8745 31.0124 30.2847 31.0124 30.7975V44.9364C31.0124 45.039 31.038 45.1416 31.1021 45.1928C31.7944 45.9491 32.1661 46.9105 32.1661 47.9232C32.1661 49.1666 31.6021 50.3331 30.6279 51.1151C29.8972 51.6919 28.9999 51.9995 28.0769 51.9995ZM27.0002 31.6948V44.9108C27.0002 45.4877 26.7951 46.0132 26.4361 46.4106C25.9234 46.9618 25.7311 47.7053 25.9106 48.4488C26.1029 49.2435 26.7566 49.8973 27.5514 50.0767C28.2564 50.2306 28.9358 50.0895 29.487 49.6537C30.0254 49.2307 30.333 48.5898 30.333 47.8976C30.333 47.3464 30.1279 46.8208 29.7434 46.4106C29.3716 46.0132 29.1793 45.4748 29.1793 44.9108V31.6948H27.0002Z" fill="white"/>
<path d="M33.3453 39.9376C32.9736 39.9376 32.6275 39.7197 32.4865 39.3608C32.307 38.8865 32.5377 38.3609 32.9992 38.1687C37.2294 36.5022 44.1514 34.8871 53.445 36.451V2.50714C37.4601 -0.287333 28.7434 6.68601 28.6537 6.76292C28.3204 7.04493 27.8204 7.04493 27.4872 6.76292C27.3974 6.69883 18.6423 -0.274514 2.69587 2.50714V36.451C11.9894 34.8871 18.9115 36.5022 23.1416 38.1687C23.6159 38.3609 23.8467 38.8865 23.6544 39.3608C23.4621 39.8351 22.9365 40.0658 22.4622 39.8736C18.2962 38.2328 11.3613 36.6561 1.93957 38.4507C1.67038 38.5019 1.38837 38.425 1.18327 38.2584C0.978175 38.0789 0.849976 37.8226 0.849976 37.5534V1.73801C0.849976 1.30217 1.15763 0.917618 1.59346 0.840706C16.6938 -2.04349 25.731 3.28907 28.0512 4.90422C30.3714 3.28907 39.4085 -2.04349 54.5089 0.840706C54.9448 0.917618 55.2524 1.30217 55.2524 1.73801V37.5534C55.2524 37.8226 55.1242 38.0918 54.9191 38.2584C54.7012 38.4379 54.432 38.5019 54.1628 38.4507C44.7411 36.6561 37.8062 38.2328 33.6401 39.8736C33.5632 39.912 33.4479 39.9376 33.3453 39.9376Z" fill="white"/>
<path d="M28.0769 13.3385C27.5641 13.3385 27.1539 12.9283 27.1539 12.4155V6.03183C27.1539 5.51909 27.5641 5.10889 28.0769 5.10889C28.5896 5.10889 28.9998 5.51909 28.9998 6.03183V12.4155C28.9998 12.9283 28.5896 13.3385 28.0769 13.3385Z" fill="white"/>
</svg>
