<svg width="88" height="58" viewBox="0 0 88 58" fill="none" xmlns="http://www.w3.org/2000/svg">
<path d="M63.4009 44.0473C61.1014 41.5613 57.3724 39.6139 54.6482 38.4123C54.4721 38.3398 54.296 38.2673 54.1302 38.2052C54.0681 37.9048 53.9127 37.6355 53.6537 37.449L51.4267 35.8642C51.2195 35.7192 50.9813 35.657 50.743 35.6467L50.5359 33.4507C53.0944 31.1408 54.0888 27.764 54.441 26.0548C54.9382 26.0445 55.5286 25.9305 56.0672 25.5473C56.8027 25.0294 57.2274 24.1696 57.362 22.9991C57.4967 21.7043 57.2688 20.741 56.668 20.1402C56.5437 20.0159 56.4091 19.9123 56.2537 19.8191L57.0616 15.4686C58.0768 8.9014 55.135 5.40027 52.131 2.84176C49.7693 0.832239 46.869 -0.172523 43.9894 0.0242861C40.105 0.283245 36.4071 3.21466 35.5784 4.31264C29.8917 6.70542 28.4622 11.9468 31.3211 19.933C31.2382 19.9952 31.145 20.047 31.0725 20.1299C30.4717 20.741 30.2335 21.7043 30.3785 22.9888C30.5028 24.1593 30.9379 25.0086 31.6733 25.5369C32.2119 25.9202 32.8024 26.0445 33.2996 26.0445C33.6518 27.764 34.6565 31.1718 37.2358 33.4818L36.9664 35.657C36.6764 35.6259 36.3656 35.6777 36.117 35.8642L33.9004 37.449C33.6414 37.6355 33.486 37.9048 33.4239 38.2052C33.2478 38.2673 33.082 38.3398 32.9059 38.4123C30.1817 39.6139 26.4527 41.5613 24.1532 44.0473C22.7962 45.5182 22.04 47.4655 22.04 49.5372V56.7673C22.04 57.451 22.589 58 23.2727 58H64.3125C64.9961 58 65.5451 57.451 65.5451 56.7673V49.5372C65.5141 47.4655 64.7682 45.5182 63.4009 44.0473ZM24.0806 49.5372C24.0806 47.9835 24.6296 46.5437 25.6344 45.456C27.6957 43.2394 31.1554 41.437 33.7036 40.3183C33.8071 40.2768 33.9107 40.2458 34.0143 40.2044L36.8525 46.5437C37.0079 46.8855 37.3083 47.1341 37.6708 47.2377C37.7847 47.2687 37.8987 47.2791 38.0126 47.2791C38.282 47.2791 38.5409 47.1962 38.7584 47.0409L40.25 45.9636L40.9233 47.6209L39.2971 55.9283H24.0806V49.5372ZM32.8542 23.8485C32.6366 23.6931 32.4812 23.3099 32.4191 22.7609C32.3259 21.9219 32.4813 21.6215 32.5331 21.58C32.5434 21.5697 32.5952 21.5593 32.6781 21.5696C33.0302 21.6007 33.3825 21.4868 33.6414 21.2382C33.9107 20.9896 34.0557 20.6271 34.0454 20.2645C34.0454 20.2127 34.0454 20.1713 34.0454 20.1195C34.4079 17.9028 35.247 12.879 38.2716 12.1125C39.8564 13.0033 45.8021 15.51 51.8928 13.7388C52.0896 15.6758 52.6386 19.6327 53.8816 21.0103C53.9334 21.0932 53.9956 21.1761 54.0681 21.2382C54.327 21.4868 54.6792 21.6007 55.0418 21.5696C55.1246 21.5593 55.1764 21.5697 55.1868 21.58C55.2282 21.6215 55.3836 21.9219 55.3007 22.7609C55.2386 23.2995 55.0832 23.6828 54.8657 23.8485C54.5964 24.035 54.1717 23.9624 54.0474 23.9314C53.7055 23.8588 53.3534 23.921 53.0633 24.1178C52.7733 24.3146 52.5868 24.6254 52.535 24.9672C52.3175 26.4381 50.8777 33.7718 43.9376 33.7718C43.9065 33.7718 43.8858 33.7718 43.8547 33.7718C36.8836 33.8754 35.4127 26.4485 35.1952 24.9569C35.1434 24.615 34.9466 24.3043 34.6669 24.1075C34.3872 23.9107 34.0246 23.8485 33.6828 23.921C33.5482 23.9625 33.1131 24.0453 32.8542 23.8485ZM37.3393 5.46242C37.7847 4.83056 40.9337 2.29277 44.1241 2.0856C46.465 1.93023 48.8371 2.7589 50.7845 4.41623C53.4776 6.71579 55.8601 9.59541 55.0107 15.1164L54.586 17.4263C54.1924 15.769 53.8816 13.6559 53.8713 12.6408C53.8609 12.2368 53.6641 11.8535 53.3326 11.6256C53.1255 11.4806 52.8769 11.4081 52.6283 11.4081C52.4832 11.4081 52.3279 11.4392 52.1932 11.491C46.1854 13.718 39.8771 10.7659 39.1831 10.2687C38.9138 10.0719 38.5616 9.98902 38.2302 10.0408C34.7601 10.6002 33.2685 14.1427 32.5538 17.0638C31.404 12.9515 31.3315 8.36277 36.3967 6.22895C36.78 6.0425 37.1011 5.79389 37.3393 5.46242ZM43.7408 35.8538C43.8133 35.8538 43.8754 35.8538 43.948 35.8538C45.7917 35.8538 47.3041 35.4395 48.5781 34.7973L48.7646 36.8586L43.7615 40.8362L38.8827 36.9518L39.1417 34.8076C40.4054 35.4498 41.9177 35.8538 43.7408 35.8538ZM44.8284 46.4815H42.6842L41.9695 44.7206L43.7511 43.4362L45.5328 44.7206L44.8284 46.4815ZM51.8825 38.7438L49.1789 44.7827L45.4706 42.1207L50.743 37.9359L51.8825 38.7438ZM42.042 42.1207L38.3337 44.7827L35.6302 38.7438L36.7696 37.9359L42.042 42.1207ZM42.8396 48.5532H44.6731L46.1128 55.9283H41.3998L42.8396 48.5532ZM63.4424 55.9283H48.226L46.6101 47.6209L47.2833 45.9636L48.775 47.0409C48.9925 47.1962 49.2514 47.2791 49.5208 47.2791C49.6347 47.2791 49.7487 47.2687 49.8626 47.2377C50.2251 47.1341 50.5255 46.8855 50.6809 46.5437L53.5191 40.2044C53.6227 40.2458 53.7263 40.2665 53.8298 40.3183C56.378 41.437 59.8377 43.2394 61.899 45.456C62.9038 46.5437 63.4528 47.9938 63.4528 49.5372V55.9283H63.4424Z" fill="#F1F2F4"/>
<path d="M86.3107 35.7099C84.838 34.1192 82.3835 32.9137 81.06 32.3296C80.9544 32.2861 80.8487 32.2426 80.7493 32.2053C80.712 32.0251 80.6188 31.8635 80.4635 31.7517L79.1275 30.8009C79.0032 30.714 78.8603 30.6767 78.7173 30.6705L78.5931 29.3469C80.1279 27.9612 80.7244 25.9355 80.9357 24.9102C81.234 24.904 81.5882 24.8356 81.9113 24.6057C82.3525 24.295 82.6073 23.7792 82.688 23.0771C82.7688 22.3003 82.6321 21.7224 82.2717 21.362C82.1971 21.2875 82.1164 21.2253 82.0231 21.1694L82.5078 18.5596C83.1168 14.6199 81.352 12.5196 79.55 10.9848C78.127 9.77931 76.3933 9.17656 74.6597 9.29463C72.3295 9.44998 70.1111 11.2085 69.614 11.8672C66.2025 13.3088 65.345 16.4468 67.0601 21.244C67.0104 21.2812 66.9544 21.3123 66.9109 21.362C66.5505 21.7287 66.4076 22.3065 66.4946 23.0771C66.5692 23.7792 66.8302 24.2888 67.2713 24.6057C67.5945 24.8356 67.9487 24.9102 68.2469 24.9102C68.4582 25.9417 69.0609 27.9861 70.6082 29.3718L70.4466 30.6767C70.2727 30.658 70.0862 30.6891 69.9371 30.8009L68.6073 31.7517C68.452 31.8635 68.3588 32.0251 68.3215 32.2053C68.2159 32.2426 68.1164 32.2861 68.0108 32.3296C66.681 32.9075 64.2327 34.1192 62.76 35.7099C61.9274 36.5923 61.48 37.7605 61.48 39.0033V43.3406C61.48 43.7507 61.8093 44.0801 62.2194 44.0801H86.8389C87.249 44.0801 87.5784 43.7507 87.5784 43.3406V39.0033C87.5784 37.7605 87.131 36.5923 86.3107 35.7099ZM86.3356 42.8373H62.7228V39.0033C62.7228 38.0712 63.0521 37.2075 63.6548 36.555C64.9784 35.132 67.2527 34.0135 68.4955 33.4729C68.5576 33.4419 68.6198 33.4294 68.6819 33.4046L70.3659 37.164C70.4964 37.63 71.5651 41.0415 74.4919 41.116V41.1222C74.5105 41.1222 74.523 41.116 74.5354 41.116C74.554 41.116 74.5665 41.1222 74.5789 41.1222V41.116C77.6548 41.0415 78.6801 37.2758 78.7236 37.1143L78.7111 37.1081L80.364 33.4046C80.4262 33.4294 80.4883 33.4481 80.5567 33.4729C81.7994 34.0135 84.0737 35.132 85.3973 36.555C86 37.2013 86.3294 38.0712 86.3294 39.0033V42.8373H86.3356ZM67.9859 23.5928C67.8554 23.4996 67.7622 23.2697 67.725 22.9404C67.669 22.437 67.7622 22.2568 67.7933 22.232C67.7995 22.2258 67.8306 22.2195 67.8803 22.2258C68.0916 22.2444 68.3028 22.1761 68.4582 22.0269C68.6198 21.8778 68.7067 21.6603 68.7005 21.4428C68.7005 21.4117 68.7005 21.3869 68.7005 21.3558C68.918 20.026 69.4213 17.0123 71.2358 16.5525C72.1865 17.0869 75.7471 18.5906 79.4071 17.5281C79.5252 18.6901 79.8545 21.0638 80.6002 21.8902C80.6312 21.9399 80.6685 21.9896 80.712 22.0269C80.8674 22.1761 81.0786 22.2444 81.2961 22.2258C81.3458 22.2195 81.3769 22.2258 81.3831 22.232C81.408 22.2568 81.5012 22.437 81.4515 22.9404C81.4142 23.2635 81.321 23.4934 81.1905 23.5928C81.0289 23.7047 80.7741 23.6612 80.6996 23.6425C80.4945 23.5928 80.2833 23.6363 80.1093 23.7544C79.9353 23.8724 79.8234 24.0589 79.7924 24.2639C79.6619 25.1463 78.7981 29.5457 74.6348 29.5457C74.6037 29.5457 74.5727 29.5457 74.5354 29.5457C70.3845 29.5457 69.5208 25.1463 69.3903 24.2577C69.3592 24.0527 69.2411 23.8662 69.0734 23.7482C68.9491 23.6612 68.8 23.6177 68.6508 23.6177C68.5949 23.6177 68.539 23.6239 68.483 23.6363C68.4023 23.6612 68.1413 23.7109 67.9859 23.5928ZM70.6766 12.5631C70.9438 12.1841 72.8328 10.6617 74.7467 10.5374C76.151 10.4442 77.574 10.9413 78.7422 11.9355C80.3578 13.315 81.787 15.0425 81.2775 18.3545L81.0227 19.7402C80.7866 18.746 80.6002 17.4783 80.5939 16.8694C80.5877 16.627 80.4697 16.3971 80.2708 16.2604C80.1465 16.1734 79.9974 16.1299 79.8421 16.1299C79.7551 16.1299 79.6619 16.1424 79.5811 16.1796C75.977 17.5156 72.1927 15.7447 71.7764 15.4464C71.6149 15.3283 71.4036 15.2786 71.2047 15.3097C69.1231 15.6452 68.2283 17.7704 67.7995 19.5227C67.1098 17.0558 67.0663 14.303 70.1049 13.023C70.341 12.9111 70.5336 12.762 70.6766 12.5631ZM74.5167 30.7947C74.5602 30.7947 74.5975 30.7947 74.641 30.7947C75.7471 30.7947 76.6543 30.5462 77.4186 30.1609L77.5305 31.3975L74.5292 33.7836L71.6024 31.4534L71.7578 30.1671C72.5159 30.5524 73.4231 30.7947 74.5167 30.7947ZM74.5416 39.867C74.1874 39.8608 73.8767 39.7738 73.5909 39.6309L73.9389 38.4068H75.1257L75.4737 39.6433C75.1941 39.78 74.8834 39.8608 74.5416 39.867ZM79.4009 32.5284L77.779 36.1511L75.5545 34.5541L78.7173 32.0437L79.4009 32.5284ZM75.0325 37.1702H74.0383L73.9202 35.7783L74.5292 35.3433L75.1754 35.8094L75.0325 37.1702ZM73.4977 34.5479L71.2731 36.1449L69.6513 32.5222L70.3348 32.0375L73.4977 34.5479ZM72.7458 36.6234L72.839 37.7294L72.5469 38.7547C72.1679 38.2701 71.9069 37.7357 71.7453 37.3442L72.7458 36.6234ZM76.5176 38.7796L76.2194 37.7357L76.3374 36.642L77.3316 37.3566C77.1701 37.7543 76.9029 38.3011 76.5176 38.7796Z" fill="#F1F2F4"/>
<path d="M24.8308 35.7099C23.3581 34.1192 20.9036 32.9137 19.58 32.3296C19.4744 32.2861 19.3687 32.2426 19.2693 32.2053C19.232 32.0251 19.1388 31.8635 18.9835 31.7517L17.6475 30.8009C17.5232 30.714 17.3803 30.6767 17.2374 30.6705L17.1131 29.3469C18.6479 27.9612 19.2445 25.9355 19.4557 24.9102C19.754 24.904 20.1082 24.8356 20.4313 24.6057C20.8725 24.295 21.1273 23.7792 21.2081 23.0771C21.2888 22.3003 21.1521 21.7224 20.7917 21.362C20.7172 21.2875 20.6364 21.2253 20.5432 21.1694L21.0278 18.5596C21.6368 14.6199 19.8721 12.5196 18.07 10.9848C16.647 9.77931 14.9134 9.17656 13.1797 9.29463C10.8495 9.44998 8.63111 11.2085 8.134 11.8672C4.72257 13.3088 3.86505 16.4468 5.58008 21.244C5.53037 21.2812 5.47445 21.3123 5.43095 21.362C5.07054 21.7287 4.92762 22.3065 5.01462 23.0771C5.08919 23.7792 5.35017 24.2888 5.79136 24.6057C6.11448 24.8356 6.46867 24.9102 6.76694 24.9102C6.97821 25.9417 7.58096 27.9861 9.12822 29.3718L8.96666 30.6767C8.79267 30.658 8.60626 30.6891 8.45712 30.8009L7.12735 31.7517C6.972 31.8635 6.87879 32.0251 6.84151 32.2053C6.73587 32.2426 6.63645 32.2861 6.53081 32.3296C5.20104 32.9075 2.75276 34.1192 1.28006 35.7099C0.447401 36.5923 0 37.7605 0 39.0033V43.3406C0 43.7507 0.329337 44.0801 0.739454 44.0801H25.3589C25.7691 44.0801 26.0984 43.7507 26.0984 43.3406V39.0033C26.0984 37.7605 25.651 36.5923 24.8308 35.7099ZM24.8556 42.8373H1.24278V39.0033C1.24278 38.0712 1.57212 37.2075 2.17487 36.555C3.49843 35.132 5.77272 34.0135 7.0155 33.4729C7.07764 33.4419 7.13977 33.4294 7.20191 33.4046L8.88588 37.164C9.01637 37.63 10.0852 41.0415 13.0119 41.116V41.1222C13.0306 41.1222 13.043 41.116 13.0554 41.116C13.0741 41.116 13.0865 41.1222 13.0989 41.1222V41.116C16.1748 41.0415 17.2001 37.2758 17.2436 37.1143L17.2312 37.1081L18.8841 33.4046C18.9462 33.4294 19.0083 33.4481 19.0767 33.4729C20.3195 34.0135 22.5938 35.132 23.9173 36.555C24.5201 37.2013 24.8494 38.0712 24.8494 39.0033V42.8373H24.8556ZM6.50596 23.5928C6.37546 23.4996 6.28226 23.2697 6.24497 22.9404C6.18905 22.437 6.28226 22.2568 6.31333 22.232C6.31954 22.2258 6.35061 22.2195 6.40032 22.2258C6.61159 22.2444 6.82287 22.1761 6.97821 22.0269C7.13977 21.8778 7.22677 21.6603 7.22056 21.4428C7.22056 21.4117 7.22056 21.3869 7.22056 21.3558C7.43804 20.026 7.94137 17.0123 9.75583 16.5525C10.7066 17.0869 14.2671 18.5906 17.9271 17.5281C18.0452 18.6901 18.3745 21.0638 19.1202 21.8902C19.1512 21.9399 19.1885 21.9896 19.232 22.0269C19.3874 22.1761 19.5986 22.2444 19.8161 22.2258C19.8658 22.2195 19.8969 22.2258 19.9031 22.232C19.928 22.2568 20.0212 22.437 19.9715 22.9404C19.9342 23.2635 19.841 23.4934 19.7105 23.5928C19.5489 23.7047 19.2942 23.6612 19.2196 23.6425C19.0145 23.5928 18.8033 23.6363 18.6293 23.7544C18.4553 23.8724 18.3434 24.0589 18.3124 24.2639C18.1819 25.1463 17.3181 29.5457 13.1548 29.5457C13.1238 29.5457 13.0927 29.5457 13.0554 29.5457C8.90452 29.5457 8.04079 25.1463 7.9103 24.2577C7.87923 24.0527 7.76116 23.8662 7.59339 23.7482C7.46911 23.6612 7.31998 23.6177 7.17084 23.6177C7.11492 23.6177 7.05899 23.6239 7.00307 23.6363C6.92229 23.6612 6.6613 23.7109 6.50596 23.5928ZM9.19658 12.5631C9.46377 12.1841 11.3528 10.6617 13.2667 10.5374C14.671 10.4442 16.094 10.9413 17.2622 11.9355C18.8778 13.315 20.307 15.0425 19.7975 18.3545L19.5427 19.7402C19.3066 18.746 19.1202 17.4783 19.114 16.8694C19.1078 16.627 18.9897 16.3971 18.7908 16.2604C18.6666 16.1734 18.5174 16.1299 18.3621 16.1299C18.2751 16.1299 18.1819 16.1424 18.1011 16.1796C14.497 17.5156 10.7128 15.7447 10.2964 15.4464C10.1349 15.3283 9.9236 15.2786 9.72476 15.3097C7.6431 15.6452 6.7483 17.7704 6.31954 19.5227C5.6298 17.0558 5.5863 14.303 8.6249 13.023C8.86103 12.9111 9.05366 12.762 9.19658 12.5631ZM13.0368 30.7947C13.0803 30.7947 13.1175 30.7947 13.161 30.7947C14.2671 30.7947 15.1744 30.5462 15.9387 30.1609L16.0505 31.3975L13.0492 33.7836L10.1224 31.4534L10.2778 30.1671C11.0359 30.5524 11.9431 30.7947 13.0368 30.7947ZM13.0616 39.867C12.7074 39.8608 12.3967 39.7738 12.1109 39.6309L12.4589 38.4068H13.6457L13.9937 39.6433C13.7141 39.78 13.4034 39.8608 13.0616 39.867ZM17.9209 32.5284L16.2991 36.1511L14.0745 34.5541L17.2374 32.0437L17.9209 32.5284ZM13.5525 37.1702H12.5583L12.4402 35.7783L13.0492 35.3433L13.6954 35.8094L13.5525 37.1702ZM12.0177 34.5479L9.79311 36.1449L8.17128 32.5222L8.85481 32.0375L12.0177 34.5479ZM11.2658 36.6234L11.359 37.7294L11.067 38.7547C10.6879 38.2701 10.4269 37.7357 10.2654 37.3442L11.2658 36.6234ZM15.0376 38.7796L14.7394 37.7357L14.8574 36.642L15.8517 37.3566C15.6901 37.7543 15.4229 38.3011 15.0376 38.7796Z" fill="#F1F2F4"/>
</svg>
