<svg width="67" height="58" viewBox="0 0 67 58" fill="none" xmlns="http://www.w3.org/2000/svg">
<path d="M54.5003 58.0001H18.1862C17.6005 58.0001 17.132 57.5315 17.132 56.9458C17.132 56.3601 17.6005 55.8915 18.1862 55.8915C20.7927 55.8915 22.9159 53.7683 22.9159 51.1619V45.3927C22.9159 44.8069 23.3844 44.3384 23.9701 44.3384H60.9285C61.5142 44.3384 61.9828 44.8069 61.9828 45.3927V50.5323C61.9828 54.6469 58.6296 58.0001 54.5003 58.0001ZM23.1062 55.9062H54.5003C57.4728 55.9062 59.8742 53.4901 59.8742 50.5323V46.4469H25.0244V51.1766C25.0244 53.0069 24.2923 54.6762 23.1062 55.9062Z" fill="#F1F2F4"/>
<path d="M18.2011 58C16.444 58 14.7747 57.3118 13.4861 56.0525C12.139 54.7347 11.3629 52.9043 11.3629 51.03V6.48675C11.3629 4.07069 9.40081 2.09392 6.97011 2.09392C6.3844 2.09392 5.91583 1.62535 5.91583 1.03964C5.93048 0.468569 6.39904 0 6.97011 0H50.9131C51.4988 0 51.9673 0.468569 51.9673 1.05428C51.9673 1.63999 51.4988 2.10856 50.9131 2.10856H11.7437C12.8126 3.26534 13.4569 4.80283 13.4569 6.50139V51.0447C13.4569 52.3625 13.9986 53.6365 14.9504 54.5736C15.8583 55.4668 17.059 55.95 18.289 55.9207C20.8515 55.8768 22.9307 53.7536 22.9307 51.1911V45.3926C22.9307 44.8069 23.3993 44.3383 23.985 44.3383H49.8881V35.1426C49.8881 34.5569 50.3566 34.0884 50.9423 34.0884C51.528 34.0884 51.9966 34.5569 51.9966 35.1426V45.3926C51.9966 45.9783 51.528 46.4469 50.9423 46.4469H25.0246V51.1765C25.0246 54.8664 22.0229 57.9414 18.3183 58C18.2743 58 18.245 58 18.2011 58Z" fill="#F1F2F4"/>
<path d="M8.27316 19.6652H1.05428C0.468569 19.6652 0 19.1967 0 18.611V6.96996C0 3.13355 3.13355 0 6.96996 0C7.55567 0 8.02424 0.468569 8.02424 1.05428C8.02424 1.63999 7.55567 2.10856 6.96996 2.10856C4.27569 2.10856 2.09392 4.29033 2.09392 6.9846V17.5713H8.27316C8.85887 17.5713 9.32744 18.0399 9.32744 18.6256C9.32744 19.1967 8.85887 19.6652 8.27316 19.6652Z" fill="#F1F2F4"/>
<path d="M31.2039 11.231H17.6008C17.0151 11.231 16.5465 10.7624 16.5465 10.1767C16.5465 9.591 17.0151 9.12244 17.6008 9.12244H31.2039C31.7896 9.12244 32.2582 9.591 32.2582 10.1767C32.2582 10.7624 31.775 11.231 31.2039 11.231Z" fill="#F1F2F4"/>
<path d="M29.52 15.3898H17.6008C17.0151 15.3898 16.5465 14.9212 16.5465 14.3355C16.5465 13.7498 17.0151 13.2812 17.6008 13.2812H29.52C30.1057 13.2812 30.5743 13.7498 30.5743 14.3355C30.5743 14.9212 30.0911 15.3898 29.52 15.3898Z" fill="#F1F2F4"/>
<path d="M27.8361 19.5481H17.6008C17.0151 19.5481 16.5465 19.0796 16.5465 18.4939C16.5465 17.9081 17.0151 17.4396 17.6008 17.4396H27.8361C28.4218 17.4396 28.8904 17.9081 28.8904 18.4939C28.8904 19.0796 28.4218 19.5481 27.8361 19.5481Z" fill="#F1F2F4"/>
<path d="M27.8361 23.7214H17.6008C17.0151 23.7214 16.5465 23.2528 16.5465 22.6671C16.5465 22.0814 17.0151 21.6128 17.6008 21.6128H27.8361C28.4218 21.6128 28.8904 22.0814 28.8904 22.6671C28.8904 23.2528 28.4218 23.7214 27.8361 23.7214Z" fill="#F1F2F4"/>
<path d="M33.7225 27.88H17.6008C17.0151 27.88 16.5465 27.4115 16.5465 26.8258C16.5465 26.2401 17.0151 25.7715 17.6008 25.7715H33.7225C34.3082 25.7715 34.7768 26.2401 34.7768 26.8258C34.7621 27.4115 34.2935 27.88 33.7225 27.88Z" fill="#F1F2F4"/>
<path d="M33.7225 32.0384H17.6008C17.0151 32.0384 16.5465 31.5698 16.5465 30.9841C16.5465 30.3984 17.0151 29.9298 17.6008 29.9298H33.7225C34.3082 29.9298 34.7768 30.3984 34.7768 30.9841C34.7621 31.5698 34.2935 32.0384 33.7225 32.0384Z" fill="#F1F2F4"/>
<path d="M46.7253 36.1969H17.6008C17.0151 36.1969 16.5465 35.7284 16.5465 35.1427C16.5465 34.5569 17.0151 34.0884 17.6008 34.0884H46.7253C47.311 34.0884 47.7795 34.5569 47.7795 35.1427C47.7795 35.7284 47.311 36.1969 46.7253 36.1969Z" fill="#F1F2F4"/>
<path d="M46.7253 40.3699H17.6008C17.0151 40.3699 16.5465 39.9013 16.5465 39.3156C16.5465 38.7299 17.0151 38.2614 17.6008 38.2614H46.7253C47.311 38.2614 47.7795 38.7299 47.7795 39.3156C47.7795 39.9013 47.311 40.3699 46.7253 40.3699Z" fill="#F1F2F4"/>
<path d="M60.2255 24.9221C56.8284 24.9221 54.0609 22.1546 54.0609 18.7575C54.0609 18.1718 54.5295 17.7032 55.1152 17.7032H65.3505C65.9362 17.7032 66.4048 18.1718 66.4048 18.7575C66.3901 22.1693 63.6226 24.9221 60.2255 24.9221ZM56.2866 19.8118C56.7552 21.5543 58.3366 22.8282 60.2109 22.8282C62.0852 22.8282 63.6812 21.5397 64.1351 19.8118H56.2866Z" fill="#F1F2F4"/>
<path d="M64.0474 19.8118C63.6081 19.8118 63.2128 19.5336 63.0517 19.109L60.2256 10.9383L57.3996 19.109C57.2092 19.6507 56.6089 19.9582 56.0671 19.7532C55.5253 19.5629 55.2324 18.9625 55.4228 18.4207L59.2446 7.3801C59.391 6.95546 59.7863 6.67725 60.2403 6.67725C60.6942 6.67725 61.0896 6.95546 61.236 7.3801L65.0577 18.4207C65.2481 18.9625 64.9552 19.5629 64.4135 19.7532C64.267 19.7972 64.1499 19.8118 64.0474 19.8118Z" fill="#F1F2F4"/>
<path d="M60.2257 8.77116H36.314C35.7283 8.77116 35.2598 8.30259 35.2598 7.71688C35.2598 7.13117 35.7283 6.6626 36.314 6.6626H60.2257C60.8114 6.6626 61.28 7.13117 61.28 7.71688C61.2653 8.30259 60.7968 8.77116 60.2257 8.77116Z" fill="#F1F2F4"/>
<path d="M36.3141 24.9221C32.917 24.9221 30.1495 22.1546 30.1495 18.7575C30.1495 18.1718 30.6181 17.7032 31.2038 17.7032H41.4391C42.0248 17.7032 42.4934 18.1718 42.4934 18.7575C42.4787 22.1693 39.7113 24.9221 36.3141 24.9221ZM32.3899 19.8118C32.8584 21.5543 34.4399 22.8282 36.3141 22.8282C38.1884 22.8282 39.7845 21.5397 40.2384 19.8118H32.3899Z" fill="#F1F2F4"/>
<path d="M40.1358 19.8118C39.6965 19.8118 39.3011 19.5336 39.1401 19.1089L36.314 10.9236L33.488 19.0943C33.2976 19.6361 32.6972 19.9436 32.1555 19.7386C31.6137 19.5482 31.3208 18.9479 31.5112 18.4061L35.3329 7.36545C35.4794 6.94081 35.8747 6.6626 36.3286 6.6626C36.7826 6.6626 37.1779 6.94081 37.3244 7.36545L41.1461 18.4061C41.3365 18.9479 41.0436 19.5482 40.5018 19.7386C40.3701 19.7972 40.2529 19.8118 40.1358 19.8118Z" fill="#F1F2F4"/>
<path d="M48.2626 26.7961C47.6769 26.7961 47.2084 26.3275 47.2084 25.7418V5.66658C47.2084 5.08087 47.6769 4.6123 48.2626 4.6123C48.8484 4.6123 49.3169 5.08087 49.3169 5.66658V25.7418C49.3169 26.3129 48.8484 26.7961 48.2626 26.7961Z" fill="#F1F2F4"/>
<path d="M53.1823 31.4676H43.3424C42.7567 31.4676 42.2881 30.999 42.2881 30.4133V25.7423C42.2881 25.1566 42.7567 24.688 43.3424 24.688H53.1823C53.768 24.688 54.2366 25.1566 54.2366 25.7423V30.4133C54.2366 30.999 53.768 31.4676 53.1823 31.4676ZM44.3966 29.3737H52.128V26.7965H44.3966V29.3737Z" fill="#F1F2F4"/>
<path d="M58.6296 36.1971H37.9101C37.3244 36.1971 36.8558 35.7285 36.8558 35.1428V30.3985C36.8558 29.8128 37.3244 29.3442 37.9101 29.3442H58.6296C59.2153 29.3442 59.6839 29.8128 59.6839 30.3985V35.1428C59.6839 35.7285 59.2153 36.1971 58.6296 36.1971ZM38.9498 34.1031H57.5753V31.4674H38.9498V34.1031Z" fill="#F1F2F4"/>
<path d="M64.0476 36.1969H32.4777C31.892 36.1969 31.4235 35.7284 31.4235 35.1427C31.4235 34.5569 31.892 34.0884 32.4777 34.0884H64.0476C64.6333 34.0884 65.1018 34.5569 65.1018 35.1427C65.1018 35.7284 64.6333 36.1969 64.0476 36.1969Z" fill="#F1F2F4"/>
</svg>
