<svg width="59" height="58" viewBox="0 0 59 58" fill="none" xmlns="http://www.w3.org/2000/svg">
<path d="M14.399 56.9131C13.664 56.9131 13.0429 56.292 13.0429 55.557V35.7337H9.18177V55.6709C9.18177 56.4059 8.55032 57.027 7.82571 57.027C7.09075 57.027 6.46965 56.3955 6.46965 55.6709V34.4812C6.46965 33.7462 7.1011 33.1251 7.82571 33.1251H14.399C15.1339 33.1251 15.755 33.7462 15.755 34.4812V55.6709C15.7654 56.292 15.1339 56.9131 14.399 56.9131Z" fill="#F1F2F4"/>
<path d="M26.8416 56.6543C26.1067 56.6543 25.4856 56.0332 25.4856 55.2983V29.4193H21.5209V55.2983C21.5209 56.0332 20.8895 56.6543 20.1649 56.6543C19.4299 56.6543 18.8088 56.0332 18.8088 55.2983V28.1667C18.8088 27.4318 19.4403 26.9142 20.1649 26.9142H26.7381C27.4731 26.9142 28.0942 27.5353 28.0942 28.1667V55.4018C28.0942 56.0332 27.4627 56.6543 26.8416 56.6543Z" fill="#F1F2F4"/>
<path d="M39.0564 56.9131C38.3215 56.9131 37.7004 56.292 37.7004 55.557V35.7337H33.7357V55.6709C33.7357 56.4059 33.1043 57.027 32.3796 57.027C31.6447 57.027 31.2306 56.292 31.2306 55.6709V34.4812C31.2306 33.7462 31.8517 33.1251 32.5867 33.1251H39.1599C39.8949 33.1251 40.516 33.7462 40.516 34.4812V55.6709C40.4125 56.292 39.7914 56.9131 39.0564 56.9131Z" fill="#F1F2F4"/>
<path d="M51.6855 57.0581C50.9506 57.0581 50.3295 56.437 50.3295 55.702V19.1712H46.3648V55.702C46.3648 56.437 45.7437 57.0581 45.0087 57.0581C44.2738 57.0581 43.6527 56.437 43.6527 55.702V17.9187C43.6527 17.1837 44.2738 16.5626 45.0087 16.5626H51.582C52.317 16.5626 52.9381 17.1837 52.9381 17.9187V55.8055C52.9381 56.437 52.317 57.0581 51.6855 57.0581Z" fill="#F1F2F4"/>
<path d="M57.5031 58.0001H1.35606C0.621097 58.0001 0 57.379 0 56.6441V4.46165C0 3.72669 0.631449 3.10559 1.35606 3.10559C2.09102 3.10559 2.71212 3.73704 2.71212 4.46165V55.3915H57.5031C58.2381 55.3915 58.8592 56.023 58.8592 56.7476C58.7557 57.379 58.1346 58.0001 57.5031 58.0001Z" fill="#F1F2F4"/>
<path d="M7.92904 27.5154H2.71183C1.97687 27.5154 1.35577 26.8943 1.35577 26.1593C1.35577 25.4244 1.97687 24.8033 2.71183 24.8033H7.09056L14.6058 8.62374C14.8128 8.20967 15.2373 7.88877 15.6513 7.88877C16.0654 7.88877 16.5933 7.99229 16.8004 8.40635L24.8332 18.7372L30.3609 11.015C30.568 10.7044 30.8785 10.4974 31.3029 10.4974C31.717 10.4974 32.0379 10.6009 32.3485 10.9114L35.2676 13.8306L44.346 2.76473H43.1969C42.462 2.76473 41.8409 2.14363 41.8409 1.40867C41.8409 0.673708 42.4723 0.0526123 43.1969 0.0526123H47.1616C47.6792 0.0526123 48.1036 0.363159 48.3106 0.787575C48.5176 1.20164 48.4141 1.83309 48.1036 2.14364L36.3235 16.5531C36.1164 16.8636 35.7024 16.9671 35.3815 17.0706C34.9674 17.0706 34.6465 16.9671 34.4395 16.6566L31.6238 13.8409L25.8787 21.6667C25.6717 21.9773 25.2576 22.1843 24.8332 22.1843C24.4191 22.1843 23.9947 21.9773 23.7877 21.6667L15.9619 11.6464L9.07806 26.6769C8.87103 27.1945 8.35345 27.5154 7.92904 27.5154Z" fill="#F1F2F4"/>
<path d="M48.321 6.63614C47.8034 6.63614 47.2755 6.32559 47.0684 5.69415L45.7124 1.72948C45.5053 0.99452 45.8159 0.269908 46.5509 0.0628758C47.2858 -0.144156 48.0104 0.166391 48.2175 0.901355L49.5735 4.86602C49.7806 5.60098 49.47 6.32559 48.735 6.53262C48.6315 6.53262 48.4245 6.63614 48.321 6.63614Z" fill="#F1F2F4"/>
</svg>
