<svg width="40" height="60" viewBox="0 0 40 60" fill="none" xmlns="http://www.w3.org/2000/svg">
<path fill-rule="evenodd" clip-rule="evenodd" d="M20.8249 52.2929C20.5236 52.8393 20.2323 53.3895 19.9527 53.944L19.308 52.8904C19.2715 52.8193 19.2348 52.7482 19.1978 52.6771C19.0155 52.3265 18.8265 51.9752 18.6317 51.623C17.0532 48.7701 15.0857 45.8626 13.0757 42.8924C6.10837 32.5966 -1.36821 21.5483 5.08958 9.41242C8.31063 3.36082 14.6935 -0.506128 21.1225 0.053675C30.5198 0.491469 37.8856 10.6182 37.1791 20.4578C36.3028 29.0699 31.5069 36.0748 26.7397 43.0378C24.7955 45.8775 22.8561 48.7102 21.1893 51.6422L21.189 51.6428L21.1029 51.7947C21.0093 51.9604 20.9166 52.1265 20.8249 52.2929ZM14.8942 41.5387C16.6369 44.1138 18.4084 46.7315 19.924 49.3412C21.5288 46.6369 23.3373 43.9939 25.0942 41.4262L25.0943 41.4261C26.2291 39.7678 27.3423 38.1409 28.3652 36.5493C31.7425 31.2941 34.3804 26.1169 34.9885 20.2321C35.5851 11.6284 29.0525 2.82527 21.0286 2.45146L20.988 2.44957L20.9474 2.44604C15.4082 1.96371 9.81136 5.32105 6.99224 10.6173L8.85266 16.1883C8.85264 16.1884 8.85263 16.1885 8.85261 16.1886L6.99212 10.6175C3.26788 17.6166 4.74676 24.2202 8.36508 31.1072C10.1858 34.5726 12.4803 37.9717 14.8141 41.4204L14.8941 41.5386L14.8942 41.5387ZM12.8268 28.089L19.924 49.3412L12.8269 28.0891C14.6012 29.6217 16.9482 30.5956 19.8677 30.6501L19.9053 30.6508L19.9428 30.6501C34.8291 30.3741 34.8246 6.20818 19.943 5.93052L19.9055 5.92982L19.868 5.93051C13.2817 6.05262 9.61036 10.8512 8.85266 16.1883L12.8269 28.0891C12.8269 28.0891 12.8268 28.0891 12.8268 28.089ZM8.85261 16.1886L12.8268 28.089C9.5588 25.2661 8.23386 20.5478 8.85261 16.1886ZM19.9054 28.2505C7.90406 28.0266 7.90537 8.55262 19.9054 8.33014C31.9067 8.55406 31.9054 28.028 19.9054 28.2505ZM37.8132 50.8236C38.4 51.1968 38.8632 51.6044 39.1882 52.0336C39.6013 52.5776 39.8105 53.1647 39.8105 53.779C39.8105 54.3948 39.6013 54.9819 39.1895 55.5259C38.8632 55.9551 38.4013 56.3613 37.8145 56.7359C36.7776 57.3977 35.325 57.9819 33.4961 58.4756C29.8539 59.4589 25.0263 60 19.9053 60C14.7842 60 9.95658 59.4589 6.31447 58.4771C4.48421 57.9833 3.03158 57.3977 1.99605 56.7374C1.40921 56.3642 0.946053 55.9565 0.621053 55.5273C0.20921 54.9833 0 54.3963 0 53.7805C0 53.1647 0.209211 52.5776 0.618421 52.0336C0.944737 51.6044 1.40658 51.1982 1.99342 50.8236C3.03026 50.1619 4.48289 49.5777 6.31184 49.0839C8.31579 48.5427 10.6776 48.1365 13.25 47.8796L14.5447 50.0312C11.6487 50.2638 9 50.6886 6.81053 51.2786C5.19737 51.7135 3.89342 52.2303 3.04079 52.7743C2.27368 53.2637 2.07105 53.6455 2.07105 53.779C2.07105 53.9125 2.27368 54.2943 3.04079 54.7838C3.89342 55.3264 5.19737 55.8446 6.81053 56.2795C10.2947 57.2182 14.9447 57.7364 19.9039 57.7364C24.8632 57.7364 29.5132 57.2197 32.9974 56.2795C34.6105 55.8446 35.9145 55.3278 36.7671 54.7838C37.5342 54.2943 37.7368 53.9125 37.7368 53.779C37.7368 53.6455 37.5342 53.2637 36.7671 52.7743C35.9145 52.2317 34.6105 51.7135 32.9974 51.2786C30.7987 50.6858 28.1382 50.2609 25.2276 50.0284L25.3098 49.8903C25.6897 49.2517 26.0921 48.5753 26.5105 47.8753C29.1013 48.1322 31.4789 48.5399 33.4947 49.0839C35.325 49.5777 36.7776 50.1633 37.8132 50.8236Z" fill="#F1F2F4"/>
</svg>
